<?xml version="1.0"?>
<!DOCTYPE svg PUBLIC "-//W3C//DTD SVG 1.1//EN" "http://www.w3.org/Graphics/SVG/1.1/DTD/svg11.dtd">
<!--Phoronix Test Suite v8.6.1 [ http://www.phoronix-test-suite.com/ ]-->
<svg xmlns="http://www.w3.org/2000/svg" xmlns:xlink="http://www.w3.org/1999/xlink" version="1.1" font-family="sans-serif, droid-sans, helvetica, verdana, tahoma" viewbox="0 0 516 437" width="516" height="437" preserveAspectRatio="xMinYMin meet"><rect x="0" y="0" width="516" height="437" fill="#FEFEFE" stroke="#757575" stroke-width="2"/><rect x="2" y="1" width="513" height="38" fill="#231f20" stroke="#757575" stroke-width="1"/><text x="258" y="19" font-size="17" fill="#FEFEFE" text-anchor="middle" font-weight="bold">c-ray-performance-out</text><a xlink:href="https://www.phoronix-test-suite.com/" xlink:show="new"><text x="4" y="36" font-size="8" fill="#FEFEFE" text-anchor="start" xlink:show="new" font-weight="bold">PHORONIX-TEST-SUITE.COM</text></a><a xlink:href="https://www.phoronix-test-suite.com/" xlink:show="new"><text x="512" y="36" font-size="8" fill="#FEFEFE" text-anchor="end" xlink:show="new" font-weight="bold">Phoronix Test Suite 8.6.1</text></a><g fill="#949494"><rect x="0" y="55" width="516" height="16"/><rect x="0" y="87" width="516" height="16"/><rect x="0" y="119" width="516" height="16"/><rect x="0" y="151" width="516" height="16"/><rect x="0" y="183" width="516" height="16"/><rect x="0" y="215" width="516" height="16"/><rect x="0" y="247" width="516" height="16"/><rect x="0" y="279" width="516" height="16"/><rect x="0" y="311" width="516" height="16"/></g><g fill="none" stroke-width="1" stroke="#005a00"/><g font-size="10" fill="#065695" text-anchor="middle" font-weight="bold"><a xlink:href="http://openbenchmarking.org/s/Intel Xeon E5-2697 v2 @ 3.50GHz (12 Cores / 24 Threads)" xlink:show="new"><text x="258" y="52" xlink:title="Processor: Intel Xeon E5-2697 v2 @ 3.50GHz (12 Cores / 24 Threads)">Intel Xeon E5-2697 v2 @ 3.50GHz (12 Cores / 24 Threads)</text></a><a xlink:href="http://openbenchmarking.org/s/Apple Mac-F60DEB81FF30ACF6 (MP61.88Z.0124.B00.1804111223 BIOS)" xlink:show="new"><text x="258" y="68" xlink:title="Motherboard: Apple Mac-F60DEB81FF30ACF6 (MP61.88Z.0124.B00.1804111223 BIOS)">Apple Mac-F60DEB81FF30ACF6 (MP61.88Z.0124.B00.1804111223 BIOS)</text></a><a xlink:href="http://openbenchmarking.org/s/Intel Xeon E7 v2/Xeon" xlink:show="new"><text x="258" y="84" xlink:title="Chipset: Intel Xeon E7 v2/Xeon">Intel Xeon E7 v2/Xeon</text></a><a xlink:href="http://openbenchmarking.org/s/32768MB" xlink:show="new"><text x="258" y="100" xlink:title="Memory: 32768MB">32768MB</text></a><a xlink:href="http://openbenchmarking.org/s/1000GB Western Digital WD1002FAEX-0 + 1001GB APPLE SSD SM1024" xlink:show="new"><text x="258" y="116" xlink:title="Disk: 1000GB Western Digital WD1002FAEX-0 + 1001GB APPLE SSD SM1024">1000GB Western Digital WD1002FAEX-0 + 1001GB APPLE SSD SM1024</text></a><a xlink:href="http://openbenchmarking.org/s/AMD Radeon HD 7970/8970 OEM / R9 280X 6GB" xlink:show="new"><text x="258" y="132" xlink:title="Graphics: AMD Radeon HD 7970/8970 OEM / R9 280X 6GB">AMD Radeon HD 7970/8970 OEM / R9 280X 6GB</text></a><a xlink:href="http://openbenchmarking.org/s/Cirrus Logic CS4208" xlink:show="new"><text x="258" y="148" xlink:title="Audio: Cirrus Logic CS4208">Cirrus Logic CS4208</text></a><a xlink:href="http://openbenchmarking.org/s/PA328" xlink:show="new"><text x="258" y="164" xlink:title="Monitor: PA328">PA328</text></a><a xlink:href="http://openbenchmarking.org/s/2 x Broadcom NetXtreme BCM57762 PCIe + Broadcom BCM4360 802.11ac" xlink:show="new"><text x="258" y="180" xlink:title="Network: 2 x Broadcom NetXtreme BCM57762 PCIe + Broadcom BCM4360 802.11ac">2 x Broadcom NetXtreme BCM57762 PCIe + Broadcom BCM4360 802.11ac</text></a><a xlink:href="http://openbenchmarking.org/s/LinuxMint 19.1" xlink:show="new"><text x="258" y="196" xlink:title="OS: LinuxMint 19.1">LinuxMint 19.1</text></a><a xlink:href="http://openbenchmarking.org/s/4.15.0-20-generic (x86_64)" xlink:show="new"><text x="258" y="212" xlink:title="Kernel: 4.15.0-20-generic (x86_64)">4.15.0-20-generic (x86_64)</text></a><a xlink:href="http://openbenchmarking.org/s/MATE 1.20.1" xlink:show="new"><text x="258" y="228" xlink:title="Desktop: MATE 1.20.1">MATE 1.20.1</text></a><a xlink:href="http://openbenchmarking.org/s/X Server 1.19.6" xlink:show="new"><text x="258" y="244" xlink:title="Display Server: X Server 1.19.6">X Server 1.19.6</text></a><a xlink:href="http://openbenchmarking.org/s/modesetting 1.19.6" xlink:show="new"><text x="258" y="260" xlink:title="Display Driver: modesetting 1.19.6">modesetting 1.19.6</text></a><a xlink:href="http://openbenchmarking.org/s/4.5 Mesa 18.0.5 (LLVM 6.0.0)" xlink:show="new"><text x="258" y="276" xlink:title="OpenGL: 4.5 Mesa 18.0.5 (LLVM 6.0.0)">4.5 Mesa 18.0.5 (LLVM 6.0.0)</text></a><a xlink:href="http://openbenchmarking.org/s/Clang 6.0.1 + LLVM 6.0.1" xlink:show="new"><text x="258" y="292" xlink:title="Compiler: Clang 6.0.1 + LLVM 6.0.1">Clang 6.0.1 + LLVM 6.0.1</text></a><a xlink:href="http://openbenchmarking.org/s/ext4" xlink:show="new"><text x="258" y="308" xlink:title="File-System: ext4">ext4</text></a><a xlink:href="http://openbenchmarking.org/s/3840x2160" xlink:show="new"><text x="258" y="324" xlink:title="Screen Resolution: 3840x2160">3840x2160</text></a></g><g font-size="7" fill="#065695" text-anchor="end"><text x="512" y="48">Processor</text><text x="512" y="64">Motherboard</text><text x="512" y="80">Chipset</text><text x="512" y="96">Memory</text><text x="512" y="112">Disk</text><text x="512" y="128">Graphics</text><text x="512" y="144">Audio</text><text x="512" y="160">Monitor</text><text x="512" y="176">Network</text><text x="512" y="192">OS</text><text x="512" y="208">Kernel</text><text x="512" y="224">Desktop</text><text x="512" y="240">Display Server</text><text x="512" y="256">Display Driver</text><text x="512" y="272">OpenGL</text><text x="512" y="288">Compiler</text><text x="512" y="304">File-System</text><text x="512" y="320">Screen Resolution</text></g><g stroke="#757575" stroke-width="1"><line x1="0" y1="39" x2="516" y2="39"/><line x1="0" y1="55" x2="516" y2="55"/><line x1="0" y1="71" x2="516" y2="71"/><line x1="0" y1="87" x2="516" y2="87"/><line x1="0" y1="103" x2="516" y2="103"/><line x1="0" y1="119" x2="516" y2="119"/><line x1="0" y1="135" x2="516" y2="135"/><line x1="0" y1="151" x2="516" y2="151"/><line x1="0" y1="167" x2="516" y2="167"/><line x1="0" y1="183" x2="516" y2="183"/><line x1="0" y1="199" x2="516" y2="199"/><line x1="0" y1="215" x2="516" y2="215"/><line x1="0" y1="231" x2="516" y2="231"/><line x1="0" y1="247" x2="516" y2="247"/><line x1="0" y1="263" x2="516" y2="263"/><line x1="0" y1="279" x2="516" y2="279"/><line x1="0" y1="295" x2="516" y2="295"/><line x1="0" y1="311" x2="516" y2="311"/></g><rect x="1" y="327" width="514" height="110" fill="#231f20"/><text x="4" y="348" font-size="9" fill="#FEFEFE" text-anchor="start" xlink:title=""><tspan x="4" y="348" dx="0" dy="0">- --disable-multilib --enable-checking=release --enable-host-shared</tspan><tspan x="4" y="348" dx="5" dy="10"> --enable-languages=c,c++,fortran,jit --with-pic </tspan></text><text x="4" y="370" font-size="9" fill="#FEFEFE" text-anchor="start" width="512">- Scaling Governor: intel_pstate performance</text><text x="4" y="382" font-size="9" fill="#FEFEFE" text-anchor="start" width="512">- KPTI + __user pointer sanitization + Full generic retpoline IBPB IBRS_FW</text></svg>
